<svg xmlns="http://www.w3.org/2000/svg" xmlns:xlink="http://www.w3.org/1999/xlink" xmlns:lucid="lucid" width="1438.14" height="1590"><g transform="translate(-419 -80)" lucid:page-tab-id="0_0"><path d="M660 104c0-2.2 1.8-4 4-4h152c2.2 0 4 1.8 4 4v32c0 2.2-1.8 4-4 4H664c-2.2 0-4-1.8-4-4z" stroke="#282c33" stroke-width="4" fill="#fff"/><use xlink:href="#a" transform="matrix(1,0,0,1,672,112) translate(8.59722222222225 16.177777777777774)"/><use xlink:href="#b" transform="matrix(1,0,0,1,672,112) translate(80.38611111111109 16.177777777777774)"/><path d="M740 143v97.73" stroke="#282c33" stroke-width="2" fill="none"/><path d="M741 143.03h-2V142h2z" fill="#282c33"/><path d="M740 256l-4.64-14.27h9.28z" stroke="#282c33" stroke-width="2" fill="#282c33"/><path d="M736.54 262.02c1.9-1.12 5-1.12 6.92 0l113.08 65.96c1.9 1.12 1.9 2.92 0 4.04l-113.08 65.96c-1.9 1.12-5 1.12-6.92 0l-113.08-65.96c-1.9-1.12-1.9-2.92 0-4.04z" stroke="#282c33" stroke-width="4" fill="#fff"/><use xlink:href="#c" transform="matrix(1,0,0,1,625,265) translate(76.83555555555557 44.61527777777778)"/><use xlink:href="#d" transform="matrix(1,0,0,1,625,265) translate(21.5895679012346 68.88194444444443)"/><use xlink:href="#e" transform="matrix(1,0,0,1,625,265) translate(87.19944444444445 68.88194444444443)"/><use xlink:href="#f" transform="matrix(1,0,0,1,625,265) translate(126.52043209876543 68.88194444444443)"/><use xlink:href="#g" transform="matrix(1,0,0,1,625,265) translate(177.01981481481482 68.88194444444443)"/><use xlink:href="#h" transform="matrix(1,0,0,1,625,265) translate(76.24574074074076 93.1486111111111)"/><path d="M741 500.83h-2v-28.65h2zm0-52.9h-2v-46.16h2z" fill="#282c33"/><path d="M741 401.8h-2v-1.04l.26.05 1.74-.1zM740 516.1l-4.64-14.27h9.28z" fill="#282c33"/><path d="M740 519.33l-6-18.5h12zm-3.26-16.5l3.26 10.03 3.26-10.03z" fill="#282c33"/><use xlink:href="#i" transform="matrix(1,0,0,1,724.2996913580247,447.9167535154501) translate(0.005000000000000782 16.177777777777774)"/><path d="M736.64 522.16c1.85-1.2 4.87-1.2 6.72 0l133.28 85.68c1.85 1.2 1.85 3.13 0 4.32l-133.28 85.68c-1.85 1.2-4.87 1.2-6.72 0l-133.28-85.68c-1.85-1.2-1.85-3.13 0-4.32z" stroke="#282c33" stroke-width="4" fill="#fff"/><use xlink:href="#j" transform="matrix(1,0,0,1,605,525) translate(64.36765432098767 63.99027777777778)"/><use xlink:href="#k" transform="matrix(1,0,0,1,605,525) translate(87.90407407407409 63.99027777777778)"/><use xlink:href="#l" transform="matrix(1,0,0,1,605,525) translate(109.19358024691358 63.99027777777778)"/><use xlink:href="#m" transform="matrix(1,0,0,1,605,525) translate(158.62567901234567 63.99027777777778)"/><use xlink:href="#n" transform="matrix(1,0,0,1,605,525) translate(72.11950617283954 88.25694444444443)"/><use xlink:href="#k" transform="matrix(1,0,0,1,605,525) translate(104.69975308641976 88.25694444444443)"/><use xlink:href="#l" transform="matrix(1,0,0,1,605,525) translate(125.98925925925926 88.25694444444443)"/><use xlink:href="#o" transform="matrix(1,0,0,1,605,525) translate(175.42135802469133 88.25694444444443)"/><use xlink:href="#p" transform="matrix(1,0,0,1,605,525) translate(66.97969135802472 112.52361111111108)"/><path d="M1460 544c0-2.2 1.8-4 4-4h232c2.2 0 4 1.8 4 4v132c0 2.2-1.8 4-4 4h-232c-2.2 0-4-1.8-4-4z" stroke="#282c33" stroke-width="4" fill="#fff"/><use xlink:href="#q" transform="matrix(1,0,0,1,1472,552) translate(9.304320987654378 27.052777777777774)"/><use xlink:href="#r" transform="matrix(1,0,0,1,1472,552) translate(87.77777777777779 27.052777777777774)"/><use xlink:href="#s" transform="matrix(1,0,0,1,1472,552) translate(109.06728395061728 27.052777777777774)"/><use xlink:href="#t" transform="matrix(1,0,0,1,1472,552) translate(162.937037037037 27.052777777777774)"/><use xlink:href="#u" transform="matrix(1,0,0,1,1472,552) translate(191.02345679012342 27.052777777777774)"/><use xlink:href="#f" transform="matrix(1,0,0,1,1472,552) translate(8.180864197530909 51.31944444444443)"/><use xlink:href="#v" transform="matrix(1,0,0,1,1472,552) translate(58.68024691358028 51.31944444444443)"/><use xlink:href="#w" transform="matrix(1,0,0,1,1472,552) translate(111.3141975308642 51.31944444444443)"/><use xlink:href="#x" transform="matrix(1,0,0,1,1472,552) translate(133.78333333333333 51.31944444444443)"/><use xlink:href="#y" transform="matrix(1,0,0,1,1472,552) translate(29.442283950617323 75.5861111111111)"/><use xlink:href="#z" transform="matrix(1,0,0,1,1472,552) translate(63.089814814814844 75.5861111111111)"/><use xlink:href="#A" transform="matrix(1,0,0,1,1472,552) translate(153.97746913580244 75.5861111111111)"/><use xlink:href="#B" transform="matrix(1,0,0,1,1472,552) translate(64.2132716049383 99.85277777777776)"/><path d="M1581 537h-2v-27.73h2zm0-52h-2v-34.95h2zm-1.4-154.6l1.4 3.4v91.98h-2V334.2l-.94-2.26-2.26-.94H878.9v-2h697.3z" fill="#282c33"/><path d="M1581 538h-2v-1.03h2zM877.9 334.64L863.63 330l14.27-4.64z" fill="#282c33"/><path d="M878.9 336l-18.5-6 18.5-6zm-12.03-6l10.03 3.26v-6.52z" fill="#282c33"/><use xlink:href="#C" transform="matrix(1,0,0,1,1518.8277777777778,425.78497517319573) translate(0 16.177777777777774)"/><use xlink:href="#D" transform="matrix(1,0,0,1,1518.8277777777778,425.78497517319573) translate(69.65432098765429 16.177777777777774)"/><use xlink:href="#C" transform="matrix(1,0,0,1,1515.4854938271606,485.00640212833923) translate(0 16.177777777777774)"/><use xlink:href="#E" transform="matrix(1,0,0,1,1515.4854938271606,485.00640212833923) translate(69.65432098765429 16.177777777777774)"/><path d="M1601.24 944c0-2.2 1.8-4 4-4h152c2.2 0 4 1.8 4 4v52c0 2.2-1.8 4-4 4h-152c-2.2 0-4-1.8-4-4z" stroke="#282c33" stroke-width="4" fill="#fff"/><use xlink:href="#F" transform="matrix(1,0,0,1,1613.24430195,952) translate(14.158333333333367 16.177777777777774)"/><use xlink:href="#G" transform="matrix(1,0,0,1,1613.24430195,952) translate(22.865123456790144 40.44444444444443)"/><use xlink:href="#H" transform="matrix(1,0,0,1,1613.24430195,952) translate(66.00586419753087 40.44444444444443)"/><path d="M1420.04 944c0-2.2 1.8-4 4-4h152c2.2 0 4 1.8 4 4v52c0 2.2-1.8 4-4 4h-152c-2.2 0-4-1.8-4-4z" stroke="#282c33" stroke-width="4" fill="#fff"/><use xlink:href="#I" transform="matrix(1,0,0,1,1432.0416493127864,952) translate(9.692592592592625 16.177777777777774)"/><use xlink:href="#G" transform="matrix(1,0,0,1,1432.0416493127864,952) translate(22.865123456790144 40.44444444444443)"/><use xlink:href="#H" transform="matrix(1,0,0,1,1432.0416493127864,952) translate(66.00586419753087 40.44444444444443)"/><path d="M1605.6 937V700.5" stroke="#282c33" stroke-width="2" fill="none"/><path d="M1606.6 938h-1.75l-.25.1v-1.13h2z" fill="#282c33"/><path d="M1605.6 685.24l4.63 14.26h-9.27z" stroke="#282c33" stroke-width="2" fill="#282c33"/><path d="M741 759.5h-2v-8.03h2zm0-32.3h-2v-25.53h2z" fill="#282c33"/><path d="M741 701.7h-2v-1h.1l1.9-.1zM740 774.76l-4.64-14.26h9.28z" fill="#282c33"/><path d="M740 778l-6-18.5h12zm-3.26-16.5l3.26 10.03 3.26-10.03z" fill="#282c33"/><use xlink:href="#J" transform="matrix(1,0,0,1,721.491049382716,727.2001353683535) translate(0 16.177777777777774)"/><path d="M590 784c0-2.2 1.8-4 4-4h292c2.2 0 4 1.8 4 4v72c0 2.2-1.8 4-4 4H594c-2.2 0-4-1.8-4-4z" stroke="#282c33" stroke-width="4" fill="#fff"/><use xlink:href="#q" transform="matrix(1,0,0,1,602,792) translate(14.054629629629687 16.177777777777774)"/><use xlink:href="#r" transform="matrix(1,0,0,1,602,792) translate(92.5280864197531 16.177777777777774)"/><use xlink:href="#s" transform="matrix(1,0,0,1,602,792) translate(113.81759259259259 16.177777777777774)"/><use xlink:href="#t" transform="matrix(1,0,0,1,602,792) translate(167.6873456790123 16.177777777777774)"/><use xlink:href="#k" transform="matrix(1,0,0,1,602,792) translate(195.7737654320987 16.177777777777774)"/><use xlink:href="#K" transform="matrix(1,0,0,1,602,792) translate(217.06327160493822 16.177777777777774)"/><use xlink:href="#v" transform="matrix(1,0,0,1,602,792) translate(1.1629629629630358 40.44444444444443)"/><use xlink:href="#w" transform="matrix(1,0,0,1,602,792) translate(53.796913580246965 40.44444444444443)"/><use xlink:href="#L" transform="matrix(1,0,0,1,602,792) translate(76.26604938271609 40.44444444444443)"/><use xlink:href="#y" transform="matrix(1,0,0,1,602,792) translate(155.91913580246913 40.44444444444443)"/><use xlink:href="#M" transform="matrix(1,0,0,1,602,792) translate(189.56666666666666 40.44444444444443)"/><use xlink:href="#N" transform="matrix(1,0,0,1,602,792) translate(75.11450617283954 64.7111111111111)"/><use xlink:href="#B" transform="matrix(1,0,0,1,602,792) translate(113.31203703703706 64.7111111111111)"/><path d="M736.88 922.5c1.72-1.38 4.52-1.38 6.24 0l93.76 75c1.72 1.38 1.72 3.62 0 5l-93.76 75c-1.72 1.38-4.52 1.38-6.24 0l-93.76-75c-1.72-1.38-1.72-3.62 0-5z" stroke="#282c33" stroke-width="4" fill="#fff"/><use xlink:href="#O" transform="matrix(1,0,0,1,645,925) translate(86.04543209876545 48.99027777777778)"/><use xlink:href="#P" transform="matrix(1,0,0,1,645,925) translate(25.26641975308645 73.25694444444443)"/><use xlink:href="#Q" transform="matrix(1,0,0,1,645,925) translate(125.42259259259258 73.25694444444443)"/><use xlink:href="#R" transform="matrix(1,0,0,1,645,925) translate(142.2744444444444 73.25694444444443)"/><use xlink:href="#S" transform="matrix(1,0,0,1,645,925) translate(54.05500000000002 97.5236111111111)"/><use xlink:href="#T" transform="matrix(1,0,0,1,645,925) translate(113.48586419753084 97.5236111111111)"/><use xlink:href="#H" transform="matrix(1,0,0,1,645,925) translate(71.44049382716051 121.79027777777776)"/><path d="M740 863v38.07" stroke="#282c33" stroke-width="2" fill="none"/><path d="M741 863.03h-2V862h2z" fill="#282c33"/><path d="M740 916.33l-4.64-14.26h9.28z" stroke="#282c33" stroke-width="2" fill="#282c33"/><path d="M741 1119.5h-2v-.3h2zm0-24.58h-2v-17.8h2z" fill="#282c33"/><path d="M741 1077.14h-2v-4.02h2zM740 1134.76l-4.64-14.26h9.28z" fill="#282c33"/><path d="M740 1138l-6-18.5h12zm-3.26-16.5l3.26 10.03 3.26-10.03z" fill="#282c33"/><use xlink:href="#i" transform="matrix(1,0,0,1,724.2996913580247,1094.9241797207972) translate(0 16.177777777777774)"/><path d="M863 1180h43.7c2.2 0 4-1.8 4-4v-52c0-2.2 1.8-4 4-4h26.2" stroke="#282c33" stroke-width="2" fill="none"/><path d="M863.03 1181H862v-2h1.03z" fill="#282c33"/><path d="M956.17 1120l-14.26 4.64v-9.28z" stroke="#282c33" stroke-width="2" fill="#282c33"/><path d="M1046.34 1081.62c2.02-.9 5.3-.9 7.32 0l82.68 36.76c2.02.9 2.02 2.35 0 3.24l-82.68 36.76c-2.02.9-5.3.9-7.32 0l-82.68-36.76c-2.02-.9-2.02-2.35 0-3.24z" stroke="#282c33" stroke-width="4" fill="#fff"/><use xlink:href="#C" transform="matrix(1,0,0,1,965,1085) translate(30.51734567901236 38.05277777777778)"/><use xlink:href="#U" transform="matrix(1,0,0,1,965,1085) translate(100.17166666666665 38.05277777777778)"/><path d="M620 1144c0-2.2 1.8-4 4-4h232c2.2 0 4 1.8 4 4v72c0 2.2-1.8 4-4 4H624c-2.2 0-4-1.8-4-4z" stroke="#282c33" stroke-width="4" fill="#fff"/><use xlink:href="#V" transform="matrix(1,0,0,1,632,1152) translate(1.018827160493899 16.177777777777774)"/><use xlink:href="#W" transform="matrix(1,0,0,1,632,1152) translate(74.66141975308645 16.177777777777774)"/><use xlink:href="#z" transform="matrix(1,0,0,1,632,1152) translate(91.5132716049383 16.177777777777774)"/><use xlink:href="#A" transform="matrix(1,0,0,1,632,1152) translate(182.4009259259259 16.177777777777774)"/><use xlink:href="#X" transform="matrix(1,0,0,1,632,1152) translate(4.726234567901301 40.44444444444443)"/><use xlink:href="#Y" transform="matrix(1,0,0,1,632,1152) translate(97.91697530864198 40.44444444444443)"/><use xlink:href="#r" transform="matrix(1,0,0,1,632,1152) translate(19.9771604938272 64.7111111111111)"/><use xlink:href="#Z" transform="matrix(1,0,0,1,632,1152) translate(41.266666666666694 64.7111111111111)"/><use xlink:href="#t" transform="matrix(1,0,0,1,632,1152) translate(115.30246913580245 64.7111111111111)"/><use xlink:href="#aa" transform="matrix(1,0,0,1,632,1152) translate(143.38888888888886 64.7111111111111)"/><path d="M1136.1 1120h60.54M1136.14 1120h-4.03" stroke="#282c33" stroke-width="2" fill="none"/><path d="M1211.9 1120l-14.26 4.64v-9.28z" stroke="#282c33" stroke-width="2" fill="#282c33"/><path d="M1217.14 1094c0-2.2 1.8-4 4-4H1556c2.2 0 4 1.8 4 4v52c0 2.2-1.8 4-4 4h-334.86c-2.2 0-4-1.8-4-4z" stroke="#282c33" stroke-width="4" fill="#fff"/><use xlink:href="#ab" transform="matrix(1,0,0,1,1229.1428571428567,1102) translate(22.382098765432175 16.177777777777774)"/><use xlink:href="#G" transform="matrix(1,0,0,1,1229.1428571428567,1102) translate(135.68271604938272 16.177777777777774)"/><use xlink:href="#r" transform="matrix(1,0,0,1,1229.1428571428567,1102) translate(178.82345679012346 16.177777777777774)"/><use xlink:href="#Z" transform="matrix(1,0,0,1,1229.1428571428567,1102) translate(200.11296296296294 16.177777777777774)"/><use xlink:href="#o" transform="matrix(1,0,0,1,1229.1428571428567,1102) translate(274.1487654320987 16.177777777777774)"/><use xlink:href="#aa" transform="matrix(1,0,0,1,1229.1428571428567,1102) translate(133.18302469135804 40.44444444444443)"/><path d="M1046.34 1181.62c2.02-.9 5.3-.9 7.32 0l82.68 36.76c2.02.9 2.02 2.35 0 3.24l-82.68 36.76c-2.02.9-5.3.9-7.32 0l-82.68-36.76c-2.02-.9-2.02-2.35 0-3.24z" stroke="#282c33" stroke-width="4" fill="#fff"/><use xlink:href="#ac" transform="matrix(1,0,0,1,965,1185) translate(52.9864814814815 27.115277777777774)"/><use xlink:href="#ad" transform="matrix(1,0,0,1,965,1185) translate(68.71487654320988 51.38194444444443)"/><path d="M1136.1 1220h60.54M1136.14 1220h-4.03" stroke="#282c33" stroke-width="2" fill="none"/><path d="M1211.9 1220l-14.26 4.64v-9.28z" stroke="#282c33" stroke-width="2" fill="#282c33"/><path d="M1217.14 1194c0-2.2 1.8-4 4-4H1556c2.2 0 4 1.8 4 4v52c0 2.2-1.8 4-4 4h-334.86c-2.2 0-4-1.8-4-4z" stroke="#282c33" stroke-width="4" fill="#fff"/><use xlink:href="#ae" transform="matrix(1,0,0,1,1229.1428571428569,1202) translate(19.573456790123544 16.177777777777774)"/><use xlink:href="#G" transform="matrix(1,0,0,1,1229.1428571428569,1202) translate(138.49135802469138 16.177777777777774)"/><use xlink:href="#r" transform="matrix(1,0,0,1,1229.1428571428569,1202) translate(181.6320987654321 16.177777777777774)"/><use xlink:href="#Z" transform="matrix(1,0,0,1,1229.1428571428569,1202) translate(202.92160493827157 16.177777777777774)"/><use xlink:href="#o" transform="matrix(1,0,0,1,1229.1428571428569,1202) translate(276.95740740740735 16.177777777777774)"/><use xlink:href="#aa" transform="matrix(1,0,0,1,1229.1428571428569,1202) translate(133.18302469135804 40.44444444444443)"/><path d="M1563 1220h31.57c2.2 0 4-1.8 4-4v-42c0-2.2 1.8-4 4-4h14.07" stroke="#282c33" stroke-width="2" fill="none"/><path d="M1563.03 1221H1562v-2h1.03z" fill="#282c33"/><path d="M1631.9 1170l-14.26 4.64v-9.28z" stroke="#282c33" stroke-width="2" fill="#282c33"/><path d="M1637.14 1124c0-2.2 1.8-4 4-4h192c2.2 0 4 1.8 4 4v92c0 2.2-1.8 4-4 4h-192c-2.2 0-4-1.8-4-4z" stroke="#282c33" stroke-width="4" fill="#fff"/><use xlink:href="#af" transform="matrix(1,0,0,1,1649.142857142857,1132) translate(43.70771604938273 16.177777777777774)"/><use xlink:href="#z" transform="matrix(1,0,0,1,1649.142857142857,1132) translate(26.26604938271609 40.44444444444443)"/><use xlink:href="#A" transform="matrix(1,0,0,1,1649.142857142857,1132) translate(117.15370370370368 40.44444444444443)"/><use xlink:href="#B" transform="matrix(1,0,0,1,1649.142857142857,1132) translate(44.2132716049383 64.7111111111111)"/><path d="M1563 1120h31.57c2.2 0 4 1.8 4 4v42c0 2.2 1.8 4 4 4h14.07" stroke="#282c33" stroke-width="2" fill="none"/><path d="M1563.03 1121H1562v-2h1.03z" fill="#282c33"/><path d="M1631.9 1170l-14.26 4.64v-9.28z" stroke="#282c33" stroke-width="2" fill="#282c33"/><path d="M863 1180h46.28c2.2 0 4 1.8 4 4v32c0 2.2 1.8 4 4 4h28.77" stroke="#282c33" stroke-width="2" fill="none"/><path d="M863.03 1181H862v-2h1.03z" fill="#282c33"/><path d="M961.32 1220l-14.27 4.64v-9.28z" stroke="#282c33" stroke-width="2" fill="#282c33"/><path d="M740 1223v57.8" stroke="#282c33" stroke-width="2" fill="none"/><path d="M741 1223.03h-2V1222h2z" fill="#282c33"/><path d="M740 1296.07l-4.64-14.27h9.28z" stroke="#282c33" stroke-width="2" fill="#282c33"/><path d="M736.6 1302.12c1.88-1.17 4.92-1.17 6.8 0l73.2 45.76c1.88 1.17 1.88 3.07 0 4.24l-73.2 45.76c-1.88 1.17-4.92 1.17-6.8 0l-73.2-45.76c-1.88-1.17-1.88-3.07 0-4.24z" stroke="#282c33" stroke-width="4" fill="#fff"/><g><use xlink:href="#ac" transform="matrix(1,0,0,1,665,1305) translate(42.9864814814815 35.86527777777778)"/><use xlink:href="#E" transform="matrix(1,0,0,1,665,1305) translate(45.317654320987664 60.13194444444443)"/></g><path d="M596.6 1262.12c1.88-1.17 4.92-1.17 6.8 0l73.2 45.76c1.88 1.17 1.88 3.07 0 4.24l-73.2 45.76c-1.88 1.17-4.92 1.17-6.8 0l-73.2-45.76c-1.88-1.17-1.88-3.07 0-4.24z" stroke="#282c33" stroke-width="4" fill="#fff"/><g><use xlink:href="#ac" transform="matrix(1,0,0,1,525,1265) translate(42.9864814814815 35.86527777777778)"/><use xlink:href="#D" transform="matrix(1,0,0,1,525,1265) translate(48.65993827160495 60.13194444444443)"/></g><path d="M567 1001h-98.5v-2H567zm76.82 0h-39.8v-2h39.8z" fill="#282c33"/><path d="M647.82 1001h-4.02v-2h4.02zM467.5 1004.64l-14.26-4.64 14.26-4.64z" fill="#282c33"/><path d="M468.5 1006l-18.5-6 18.5-6zm-12.03-6l10.03 3.26v-6.52z" fill="#282c33"/><g><use xlink:href="#ag" transform="matrix(1,0,0,1,566.9991322110968,987.8666666666667) translate(0 16.177777777777774)"/></g><path d="M560 1464c0-2.2 1.8-4 4-4h352c2.2 0 4 1.8 4 4v52c0 2.2-1.8 4-4 4H564c-2.2 0-4-1.8-4-4z" stroke="#282c33" stroke-width="4" fill="#fff"/><g><use xlink:href="#ah" transform="matrix(1,0,0,1,572,1472) translate(10.12623456790132 16.177777777777774)"/><use xlink:href="#G" transform="matrix(1,0,0,1,572,1472) translate(132.35833333333335 16.177777777777774)"/><use xlink:href="#ai" transform="matrix(1,0,0,1,572,1472) translate(175.49907407407406 16.177777777777774)"/><use xlink:href="#r" transform="matrix(1,0,0,1,572,1472) translate(228.24537037037032 16.177777777777774)"/><use xlink:href="#s" transform="matrix(1,0,0,1,572,1472) translate(249.53487654320983 16.177777777777774)"/><use xlink:href="#o" transform="matrix(1,0,0,1,572,1472) translate(303.40462962962954 16.177777777777774)"/><use xlink:href="#aj" transform="matrix(1,0,0,1,572,1472) translate(120.73055555555558 40.44444444444443)"/></g><path d="M740 1401.7v37.8" stroke="#282c33" stroke-width="2" fill="none"/><path d="M741 1401.72h-2v-1.02l.16.04 1.84-.1z" fill="#282c33"/><path d="M740 1454.76l-4.64-14.26h9.28z" stroke="#282c33" stroke-width="2" fill="#282c33"/><path d="M740 1523v46.5" stroke="#282c33" stroke-width="2" fill="none"/><path d="M741 1523.03h-2V1522h2z" fill="#282c33"/><path d="M740 1584.76l-4.64-14.26h9.28z" stroke="#282c33" stroke-width="2" fill="#282c33"/><path d="M560 1594c0-2.2 1.8-4 4-4h352c2.2 0 4 1.8 4 4v52c0 2.2-1.8 4-4 4H564c-2.2 0-4-1.8-4-4z" stroke="#282c33" stroke-width="4" fill="#fff"/><g><use xlink:href="#ak" transform="matrix(1,0,0,1,572,1602) translate(7.514197530864294 16.177777777777774)"/><use xlink:href="#al" transform="matrix(1,0,0,1,572,1602) translate(87.2234567901235 16.177777777777774)"/><use xlink:href="#am" transform="matrix(1,0,0,1,572,1602) translate(121.99444444444448 16.177777777777774)"/><use xlink:href="#r" transform="matrix(1,0,0,1,572,1602) translate(210.69135802469134 16.177777777777774)"/><use xlink:href="#Z" transform="matrix(1,0,0,1,572,1602) translate(231.98086419753082 16.177777777777774)"/><use xlink:href="#o" transform="matrix(1,0,0,1,572,1602) translate(306.0166666666666 16.177777777777774)"/><use xlink:href="#aa" transform="matrix(1,0,0,1,572,1602) translate(141.68302469135804 40.44444444444443)"/></g><path d="M617 1180h-13c-2.2 0-4 1.8-4 4v56.8" stroke="#282c33" stroke-width="2" fill="none"/><path d="M618 1181h-1.03v-2H618z" fill="#282c33"/><path d="M600 1256.07l-4.64-14.27h9.28z" stroke="#282c33" stroke-width="2" fill="#282c33"/><path d="M523.04 1310H468.5M523.02 1310h4.02" stroke="#282c33" stroke-width="2" fill="none"/><path d="M453.24 1310l14.26-4.64v9.28z" stroke="#282c33" stroke-width="2" fill="#282c33"/><path d="M601.1 331H454.2l-2.26.94-.94 2.26v1281.6l.94 2.26 2.26.94H557v2H453.8l-3.4-1.4-1.4-3.4V333.8l1.4-3.4 3.4-1.4h147.3z" fill="#282c33"/><path d="M558 1621h-1.03v-2H558zM616.37 330l-14.27 4.64v-9.28z" fill="#282c33"/><path d="M619.6 330l-18.5 6v-12zm-16.5 3.26l10.03-3.26-10.03-3.26z" fill="#282c33"/><path d="M1016.8 382.4c1.77-1.33 4.63-1.33 6.4 0l73.6 55.2c1.77 1.33 1.77 3.47 0 4.8l-73.6 55.2c-1.77 1.33-4.63 1.33-6.4 0l-73.6-55.2c-1.77-1.33-1.77-3.47 0-4.8z" stroke="#282c33" stroke-width="4" fill="#fff"/><g><use xlink:href="#an" transform="matrix(1,0,0,1,945,385) translate(20.554999999999993 59.0875)"/><use xlink:href="#ao" transform="matrix(1,0,0,1,945,385) translate(82.555 59.0875)"/></g><path d="M937.34 611h-56.18v-2h56.18zm83.66-4.8l-1.4 3.4-3.4 1.4h-46.9v-2h46.5l2.26-.94.94-2.26V519h2z" fill="#282c33"/><path d="M881.18 611h-1.5l.65-1.36-.44-.64h1.28zM1024.64 518h-9.28l4.64-14.26z" fill="#282c33"/><path d="M1026 519h-12l6-18.5zm-9.26-2h6.52l-3.26-10.03z" fill="#282c33"/><g><use xlink:href="#ap" transform="matrix(1,0,0,1,937.3404127389159,599.2) translate(0 14.4)"/></g><path d="M937.34 611h-56.18v-2h56.18zm144.1 0H969.3v-2h112.15z" fill="#282c33"/><path d="M881.18 611h-1.5l.65-1.36-.44-.64h1.28zM1096.72 610l-14.27 4.64v-9.28z" fill="#282c33"/><path d="M1099.96 610l-18.5 6v-12zm-16.5 3.26l10.02-3.26-10.03-3.26z" fill="#282c33"/><path d="M1186.84 542.46c1.75-1.36 4.57-1.36 6.32 0l83.68 65.08c1.75 1.36 1.75 3.56 0 4.92l-83.68 65.08c-1.75 1.36-4.57 1.36-6.32 0l-83.68-65.08c-1.75-1.36-1.75-3.56 0-4.92z" stroke="#282c33" stroke-width="4" fill="#fff"/><g><use xlink:href="#aq" transform="matrix(1,0,0,1,1105,545) translate(41.05499999999999 59.0875)"/><use xlink:href="#ar" transform="matrix(1,0,0,1,1105,545) translate(89.005 59.0875)"/><use xlink:href="#as" transform="matrix(1,0,0,1,1105,545) translate(27.079999999999995 80.6875)"/><use xlink:href="#at" transform="matrix(1,0,0,1,1105,545) translate(73.92999999999999 80.6875)"/></g><path d="M1020 378.5V334c0-2.2-1.8-4-4-4H878.9" stroke="#282c33" stroke-width="2" fill="none"/><path d="M1021 379.46l-2 .07v-1.06h2z" fill="#282c33"/><path d="M863.63 330l14.27-4.64v9.28z" stroke="#282c33" stroke-width="2" fill="#282c33"/><path d="M1281.04 610h158.46" stroke="#282c33" stroke-width="2" fill="none"/><path d="M1281.07 611h-1.25l.42-1.87-.08-.13h.9z" fill="#282c33"/><path d="M1454.76 610l-14.26 4.64v-9.28z" stroke="#282c33" stroke-width="2" fill="#282c33"/><path d="M1573.4 937V810.05c0-.03 0-.05.04-.05.02 0 .04-.02.04-.05V700.5" stroke="#282c33" stroke-width="2" fill="none"/><path d="M1574.4 938h-2v-1.03h2z" fill="#282c33"/><path d="M1573.48 685.24l4.64 14.26h-9.27z" stroke="#282c33" stroke-width="2" fill="#282c33"/><path d="M1476.8 752.4c1.77-1.33 4.63-1.33 6.4 0l73.6 55.2c1.77 1.33 1.77 3.47 0 4.8l-73.6 55.2c-1.77 1.33-4.63 1.33-6.4 0l-73.6-55.2c-1.77-1.33-1.77-3.47 0-4.8z" stroke="#282c33" stroke-width="4" fill="#fff"/><g><use xlink:href="#an" transform="matrix(1,0,0,1,1404.9999999999998,755) translate(20.054999999999993 59.0875)"/><use xlink:href="#au" transform="matrix(1,0,0,1,1404.9999999999998,755) translate(82.055 59.0875)"/></g><path d="M1481.76 683v48.16" stroke="#282c33" stroke-width="2" fill="none"/><path d="M1482.76 683.03h-2V682h2z" fill="#282c33"/><path d="M1481.76 746.43l-4.63-14.27h9.27z" stroke="#282c33" stroke-width="2" fill="#282c33"/><path d="M1696.8 752.4c1.77-1.33 4.63-1.33 6.4 0l73.6 55.2c1.77 1.33 1.77 3.47 0 4.8l-73.6 55.2c-1.77 1.33-4.63 1.33-6.4 0l-73.6-55.2c-1.77-1.33-1.77-3.47 0-4.8z" stroke="#282c33" stroke-width="4" fill="#fff"/><g><use xlink:href="#an" transform="matrix(1,0,0,1,1625,755) translate(27.529999999999994 59.0875)"/><use xlink:href="#av" transform="matrix(1,0,0,1,1625,755) translate(89.53 59.0875)"/></g><path d="M1660.58 683v28.83c0 2.2 1.8 4 4 4h33.18c2.2 0 4 1.8 4 4v11.33" stroke="#282c33" stroke-width="2" fill="none"/><path d="M1661.58 683.03h-2V682h2z" fill="#282c33"/><path d="M1701.76 746.43l-4.63-14.27h9.27z" stroke="#282c33" stroke-width="2" fill="#282c33"/><path d="M1700 871.5v48" stroke="#282c33" stroke-width="2" fill="none"/><path d="M1701 871.53h-2v-1l2-.06z" fill="#282c33"/><path d="M1700 934.76l-4.64-14.26h9.28z" stroke="#282c33" stroke-width="2" fill="#282c33"/><path d="M1480 871.5v48" stroke="#282c33" stroke-width="2" fill="none"/><path d="M1481 871.53h-2v-1l2-.06z" fill="#282c33"/><path d="M1480 934.76l-4.64-14.26h9.28z" stroke="#282c33" stroke-width="2" fill="#282c33"/><defs><path fill="#5d646f" d="M240 0l2-218c-23 76-54 145-80 218h-23L58-218 59 0H30v-248h44l77 211c21-75 51-140 76-211h43V0h-30" id="aw"/><path fill="#5d646f" d="M100-194c62-1 85 37 85 99 1 63-27 99-86 99S16-35 15-95c0-66 28-99 85-99zM99-20c44 1 53-31 53-75 0-43-8-75-51-75s-53 32-53 75 10 74 51 75" id="ax"/><path fill="#5d646f" d="M85-194c31 0 48 13 60 33l-1-100h32l1 261h-30c-2-10 0-23-3-31C134-8 116 4 85 4 32 4 16-35 15-94c0-66 23-100 70-100zm9 24c-40 0-46 34-46 75 0 40 6 74 45 74 42 0 51-32 51-76 0-42-9-74-50-73" id="ay"/><path fill="#5d646f" d="M84 4C-5 8 30-112 23-190h32v120c0 31 7 50 39 49 72-2 45-101 50-169h31l1 190h-30c-1-10 1-25-2-33-11 22-28 36-60 37" id="az"/><path fill="#5d646f" d="M24 0v-261h32V0H24" id="aA"/><path fill="#5d646f" d="M100-194c63 0 86 42 84 106H49c0 40 14 67 53 68 26 1 43-12 49-29l28 8c-11 28-37 45-77 45C44 4 14-33 15-96c1-61 26-98 85-98zm52 81c6-60-76-77-97-28-3 7-6 17-6 28h103" id="aB"/><g id="a"><use transform="matrix(0.056172839506172814,0,0,0.056172839506172814,0,0)" xlink:href="#aw"/><use transform="matrix(0.056172839506172814,0,0,0.056172839506172814,16.795679012345673,0)" xlink:href="#ax"/><use transform="matrix(0.056172839506172814,0,0,0.056172839506172814,28.030246913580235,0)" xlink:href="#ay"/><use transform="matrix(0.056172839506172814,0,0,0.056172839506172814,39.2648148148148,0)" xlink:href="#az"/><use transform="matrix(0.056172839506172814,0,0,0.056172839506172814,50.49938271604936,0)" xlink:href="#aA"/><use transform="matrix(0.056172839506172814,0,0,0.056172839506172814,54.937037037037015,0)" xlink:href="#aB"/></g><path fill="#5d646f" d="M233-177c-1 41-23 64-60 70L243 0h-38l-65-103H63V0H30v-248c88 3 205-21 203 71zM63-129c60-2 137 13 137-47 0-61-80-42-137-45v92" id="aC"/><path fill="#5d646f" d="M63-220v92h138v28H63V0H30v-248h175v28H63" id="aD"/><path fill="#5d646f" d="M33 0v-248h34V0H33" id="aE"/><path fill="#5d646f" d="M30-248c118-7 216 8 213 122C240-48 200 0 122 0H30v-248zM63-27c89 8 146-16 146-99s-60-101-146-95v194" id="aF"/><g id="b"><use transform="matrix(0.056172839506172814,0,0,0.056172839506172814,0,0)" xlink:href="#aC"/><use transform="matrix(0.056172839506172814,0,0,0.056172839506172814,14.548765432098758,0)" xlink:href="#aD"/><use transform="matrix(0.056172839506172814,0,0,0.056172839506172814,26.850617283950605,0)" xlink:href="#aE"/><use transform="matrix(0.056172839506172814,0,0,0.056172839506172814,32.46790123456789,0)" xlink:href="#aF"/></g><path fill="#5d646f" d="M205 0l-28-72H64L36 0H1l101-248h38L239 0h-34zm-38-99l-47-123c-12 45-31 82-46 123h93" id="aG"/><path fill="#5d646f" d="M59-47c-2 24 18 29 38 22v24C64 9 27 4 27-40v-127H5v-23h24l9-43h21v43h35v23H59v120" id="aH"/><path fill="#5d646f" d="M117-194c89-4 53 116 60 194h-32v-121c0-31-8-49-39-48C34-167 62-67 57 0H25l-1-190h30c1 10-1 24 2 32 11-22 29-35 61-36" id="aI"/><path fill="#5d646f" d="M114-163C36-179 61-72 57 0H25l-1-190h30c1 12-1 29 2 39 6-27 23-49 58-41v29" id="aJ"/><g id="c"><use transform="matrix(0.056172839506172814,0,0,0.056172839506172814,0,0)" xlink:href="#aG"/><use transform="matrix(0.056172839506172814,0,0,0.056172839506172814,13.481481481481476,0)" xlink:href="#aH"/><use transform="matrix(0.056172839506172814,0,0,0.056172839506172814,19.09876543209876,0)" xlink:href="#aH"/><use transform="matrix(0.056172839506172814,0,0,0.056172839506172814,24.71604938271604,0)" xlink:href="#aB"/><use transform="matrix(0.056172839506172814,0,0,0.056172839506172814,35.950617283950606,0)" xlink:href="#aI"/><use transform="matrix(0.056172839506172814,0,0,0.056172839506172814,47.18518518518517,0)" xlink:href="#ay"/><use transform="matrix(0.056172839506172814,0,0,0.056172839506172814,58.419753086419725,0)" xlink:href="#aJ"/><use transform="matrix(0.056172839506172814,0,0,0.056172839506172814,65.10432098765429,0)" xlink:href="#aB"/></g><path fill="#5d646f" d="M145-31C134-9 116 4 85 4 32 4 16-35 15-94c0-59 17-99 70-100 32-1 48 14 60 33 0-11-1-24 2-32h30l-1 268h-32zM93-21c41 0 51-33 51-76s-8-73-50-73c-40 0-46 35-46 75s5 74 45 74" id="aK"/><path fill="#5d646f" d="M47-170H22l-4-78h33" id="aL"/><g id="d"><use transform="matrix(0.056172839506172814,0,0,0.056172839506172814,0,0)" xlink:href="#aK"/><use transform="matrix(0.056172839506172814,0,0,0.056172839506172814,11.234567901234563,0)" xlink:href="#az"/><use transform="matrix(0.056172839506172814,0,0,0.056172839506172814,22.469135802469125,0)" xlink:href="#aL"/><use transform="matrix(0.056172839506172814,0,0,0.056172839506172814,26.288888888888877,0)" xlink:href="#az"/><use transform="matrix(0.056172839506172814,0,0,0.056172839506172814,37.52345679012344,0)" xlink:href="#aI"/><use transform="matrix(0.056172839506172814,0,0,0.056172839506172814,48.758024691358,0)" xlink:href="#aB"/></g><g id="e"><use transform="matrix(0.056172839506172814,0,0,0.056172839506172814,0,0)" xlink:href="#az"/><use transform="matrix(0.056172839506172814,0,0,0.056172839506172814,11.234567901234563,0)" xlink:href="#aI"/><use transform="matrix(0.056172839506172814,0,0,0.056172839506172814,22.469135802469125,0)" xlink:href="#aB"/></g><path fill="#5d646f" d="M96-169c-40 0-48 33-48 73s9 75 48 75c24 0 41-14 43-38l32 2c-6 37-31 61-74 61-59 0-76-41-82-99-10-93 101-131 147-64 4 7 5 14 7 22l-32 3c-4-21-16-35-41-35" id="aM"/><path fill="#5d646f" d="M141-36C126-15 110 5 73 4 37 3 15-17 15-53c-1-64 63-63 125-63 3-35-9-54-41-54-24 1-41 7-42 31l-33-3c5-37 33-52 76-52 45 0 72 20 72 64v82c-1 20 7 32 28 27v20c-31 9-61-2-59-35zM48-53c0 20 12 33 32 33 41-3 63-29 60-74-43 2-92-5-92 41" id="aN"/><g id="f"><use transform="matrix(0.056172839506172814,0,0,0.056172839506172814,0,0)" xlink:href="#aM"/><use transform="matrix(0.056172839506172814,0,0,0.056172839506172814,10.111111111111107,0)" xlink:href="#aN"/><use transform="matrix(0.056172839506172814,0,0,0.056172839506172814,21.34567901234567,0)" xlink:href="#aJ"/><use transform="matrix(0.056172839506172814,0,0,0.056172839506172814,28.030246913580235,0)" xlink:href="#aH"/><use transform="matrix(0.056172839506172814,0,0,0.056172839506172814,33.64753086419752,0)" xlink:href="#aB"/></g><path fill="#5d646f" d="M135-143c-3-34-86-38-87 0 15 53 115 12 119 90S17 21 10-45l28-5c4 36 97 45 98 0-10-56-113-15-118-90-4-57 82-63 122-42 12 7 21 19 24 35" id="aO"/><path fill="#5d646f" d="M24-231v-30h32v30H24zM24 0v-190h32V0H24" id="aP"/><g id="g"><use transform="matrix(0.056172839506172814,0,0,0.056172839506172814,0,0)" xlink:href="#aO"/><use transform="matrix(0.056172839506172814,0,0,0.056172839506172814,10.111111111111107,0)" xlink:href="#ax"/><use transform="matrix(0.056172839506172814,0,0,0.056172839506172814,21.34567901234567,0)" xlink:href="#aP"/><use transform="matrix(0.056172839506172814,0,0,0.056172839506172814,25.783333333333324,0)" xlink:href="#aH"/></g><path fill="#5d646f" d="M100-194c63 0 86 42 84 106H49c0 40 14 67 53 68 26 1 43-12 49-29l28 8c-11 28-37 45-77 45C44 4 14-33 15-96c1-61 26-98 85-98zm52 81c6-60-76-77-97-28-3 7-6 17-6 28h103zm-74-98c8-23 27-35 38-54h36v5l-58 49H78" id="aQ"/><g id="h"><use transform="matrix(0.056172839506172814,0,0,0.056172839506172814,0,0)" xlink:href="#ay"/><use transform="matrix(0.056172839506172814,0,0,0.056172839506172814,11.234567901234563,0)" xlink:href="#aQ"/><use transform="matrix(0.056172839506172814,0,0,0.056172839506172814,22.469135802469125,0)" xlink:href="#aH"/><use transform="matrix(0.056172839506172814,0,0,0.056172839506172814,28.086419753086407,0)" xlink:href="#aB"/><use transform="matrix(0.056172839506172814,0,0,0.056172839506172814,39.32098765432097,0)" xlink:href="#aM"/><use transform="matrix(0.056172839506172814,0,0,0.056172839506172814,49.43209876543208,0)" xlink:href="#aH"/><use transform="matrix(0.056172839506172814,0,0,0.056172839506172814,55.049382716049365,0)" xlink:href="#aQ"/><use transform="matrix(0.056172839506172814,0,0,0.056172839506172814,66.28395061728392,0)" xlink:href="#aB"/></g><path fill="#5d646f" d="M140-251c81 0 123 46 123 126C263-46 219 4 140 4 59 4 17-45 17-125s42-126 123-126zm0 227c63 0 89-41 89-101s-29-99-89-99c-61 0-89 39-89 99S79-25 140-24" id="aR"/><g id="i"><use transform="matrix(0.056172839506172814,0,0,0.056172839506172814,0,0)" xlink:href="#aR"/><use transform="matrix(0.056172839506172814,0,0,0.056172839506172814,15.728395061728389,0)" xlink:href="#az"/><use transform="matrix(0.056172839506172814,0,0,0.056172839506172814,26.96296296296295,0)" xlink:href="#aP"/></g><path fill="#5d646f" d="M185-189c-5-48-123-54-124 2 14 75 158 14 163 119 3 78-121 87-175 55-17-10-28-26-33-46l33-7c5 56 141 63 141-1 0-78-155-14-162-118-5-82 145-84 179-34 5 7 8 16 11 25" id="aS"/><g id="j"><use transform="matrix(0.056172839506172814,0,0,0.056172839506172814,0,0)" xlink:href="#aS"/><use transform="matrix(0.056172839506172814,0,0,0.056172839506172814,13.481481481481476,0)" xlink:href="#aP"/></g><g id="k"><use transform="matrix(0.056172839506172814,0,0,0.056172839506172814,0,0)" xlink:href="#aA"/><use transform="matrix(0.056172839506172814,0,0,0.056172839506172814,4.437654320987653,0)" xlink:href="#aN"/></g><path fill="#5d646f" d="M115-194c55 1 70 41 70 98S169 2 115 4C84 4 66-9 55-30l1 105H24l-1-265h31l2 30c10-21 28-34 59-34zm-8 174c40 0 45-34 45-75s-6-73-45-74c-42 0-51 32-51 76 0 43 10 73 51 73" id="aT"/><g id="l"><use transform="matrix(0.056172839506172814,0,0,0.056172839506172814,0,0)" xlink:href="#aT"/><use transform="matrix(0.056172839506172814,0,0,0.056172839506172814,11.234567901234563,0)" xlink:href="#az"/><use transform="matrix(0.056172839506172814,0,0,0.056172839506172814,22.469135802469125,0)" xlink:href="#aM"/><use transform="matrix(0.056172839506172814,0,0,0.056172839506172814,32.58024691358023,0)" xlink:href="#aB"/></g><g id="m"><use transform="matrix(0.056172839506172814,0,0,0.056172839506172814,0,0)" xlink:href="#aC"/><use transform="matrix(0.056172839506172814,0,0,0.056172839506172814,14.548765432098758,0)" xlink:href="#aD"/><use transform="matrix(0.056172839506172814,0,0,0.056172839506172814,26.850617283950605,0)" xlink:href="#aE"/><use transform="matrix(0.056172839506172814,0,0,0.056172839506172814,32.46790123456789,0)" xlink:href="#aF"/></g><g id="n"><use transform="matrix(0.056172839506172814,0,0,0.056172839506172814,0,0)" xlink:href="#aB"/><use transform="matrix(0.056172839506172814,0,0,0.056172839506172814,11.234567901234563,0)" xlink:href="#aO"/><use transform="matrix(0.056172839506172814,0,0,0.056172839506172814,21.34567901234567,0)" xlink:href="#aH"/></g><g id="o"><use transform="matrix(0.056172839506172814,0,0,0.056172839506172814,0,0)" xlink:href="#ay"/><use transform="matrix(0.056172839506172814,0,0,0.056172839506172814,11.234567901234563,0)" xlink:href="#aB"/></g><path fill="#5d646f" d="M210-169c-67 3-38 105-44 169h-31v-121c0-29-5-50-35-48C34-165 62-65 56 0H25l-1-190h30c1 10-1 24 2 32 10-44 99-50 107 0 11-21 27-35 58-36 85-2 47 119 55 194h-31v-121c0-29-5-49-35-48" id="aU"/><g id="p"><use transform="matrix(0.056172839506172814,0,0,0.056172839506172814,0,0)" xlink:href="#aA"/><use transform="matrix(0.056172839506172814,0,0,0.056172839506172814,4.437654320987653,0)" xlink:href="#aL"/><use transform="matrix(0.056172839506172814,0,0,0.056172839506172814,8.257407407407404,0)" xlink:href="#aN"/><use transform="matrix(0.056172839506172814,0,0,0.056172839506172814,19.49197530864197,0)" xlink:href="#ay"/><use transform="matrix(0.056172839506172814,0,0,0.056172839506172814,30.726543209876528,0)" xlink:href="#aU"/><use transform="matrix(0.056172839506172814,0,0,0.056172839506172814,47.522222222222204,0)" xlink:href="#aP"/><use transform="matrix(0.056172839506172814,0,0,0.056172839506172814,51.95987654320986,0)" xlink:href="#aI"/><use transform="matrix(0.056172839506172814,0,0,0.056172839506172814,63.194444444444414,0)" xlink:href="#aP"/><use transform="matrix(0.056172839506172814,0,0,0.056172839506172814,67.63209876543208,0)" xlink:href="#aO"/><use transform="matrix(0.056172839506172814,0,0,0.056172839506172814,77.74320987654318,0)" xlink:href="#aH"/><use transform="matrix(0.056172839506172814,0,0,0.056172839506172814,83.36049382716045,0)" xlink:href="#aJ"/><use transform="matrix(0.056172839506172814,0,0,0.056172839506172814,90.04506172839501,0)" xlink:href="#aN"/><use transform="matrix(0.056172839506172814,0,0,0.056172839506172814,101.27962962962957,0)" xlink:href="#aH"/><use transform="matrix(0.056172839506172814,0,0,0.056172839506172814,106.89691358024685,0)" xlink:href="#aB"/><use transform="matrix(0.056172839506172814,0,0,0.056172839506172814,118.13148148148143,0)" xlink:href="#az"/><use transform="matrix(0.056172839506172814,0,0,0.056172839506172814,129.36604938271597,0)" xlink:href="#aJ"/></g><path fill="#5d646f" d="M212-179c-10-28-35-45-73-45-59 0-87 40-87 99 0 60 29 101 89 101 43 0 62-24 78-52l27 14C228-24 195 4 139 4 59 4 22-46 18-125c-6-104 99-153 187-111 19 9 31 26 39 46" id="aV"/><path fill="#5d646f" d="M106-169C34-169 62-67 57 0H25v-261h32l-1 103c12-21 28-36 61-36 89 0 53 116 60 194h-32v-121c2-32-8-49-39-48" id="aW"/><path fill="#5d646f" d="M177-190C167-65 218 103 67 71c-23-6-38-20-44-43l32-5c15 47 100 32 89-28v-30C133-14 115 1 83 1 29 1 15-40 15-95c0-56 16-97 71-98 29-1 48 16 59 35 1-10 0-23 2-32h30zM94-22c36 0 50-32 50-73 0-42-14-75-50-75-39 0-46 34-46 75s6 73 46 73" id="aX"/><g id="q"><use transform="matrix(0.056172839506172814,0,0,0.056172839506172814,0,0)" xlink:href="#aV"/><use transform="matrix(0.056172839506172814,0,0,0.056172839506172814,14.548765432098758,0)" xlink:href="#aW"/><use transform="matrix(0.056172839506172814,0,0,0.056172839506172814,25.78333333333332,0)" xlink:href="#aN"/><use transform="matrix(0.056172839506172814,0,0,0.056172839506172814,37.01790123456789,0)" xlink:href="#aJ"/><use transform="matrix(0.056172839506172814,0,0,0.056172839506172814,43.70246913580245,0)" xlink:href="#aX"/><use transform="matrix(0.056172839506172814,0,0,0.056172839506172814,54.937037037037015,0)" xlink:href="#aB"/><use transform="matrix(0.056172839506172814,0,0,0.056172839506172814,66.17160493827157,0)" xlink:href="#aJ"/></g><g id="r"><use transform="matrix(0.056172839506172814,0,0,0.056172839506172814,0,0)" xlink:href="#aA"/><use transform="matrix(0.056172839506172814,0,0,0.056172839506172814,4.437654320987653,0)" xlink:href="#aB"/></g><g id="s"><use transform="matrix(0.056172839506172814,0,0,0.056172839506172814,0,0)" xlink:href="#aO"/><use transform="matrix(0.056172839506172814,0,0,0.056172839506172814,10.111111111111107,0)" xlink:href="#ax"/><use transform="matrix(0.056172839506172814,0,0,0.056172839506172814,21.34567901234567,0)" xlink:href="#aA"/><use transform="matrix(0.056172839506172814,0,0,0.056172839506172814,25.783333333333324,0)" xlink:href="#ay"/><use transform="matrix(0.056172839506172814,0,0,0.056172839506172814,37.01790123456789,0)" xlink:href="#aB"/></g><g id="t"><use transform="matrix(0.056172839506172814,0,0,0.056172839506172814,0,0)" xlink:href="#ay"/><use transform="matrix(0.056172839506172814,0,0,0.056172839506172814,11.234567901234563,0)" xlink:href="#aB"/></g><g id="u"><use transform="matrix(0.056172839506172814,0,0,0.056172839506172814,0,0)" xlink:href="#aA"/><use transform="matrix(0.056172839506172814,0,0,0.056172839506172814,4.437654320987653,0)" xlink:href="#aN"/></g><g id="v"><use transform="matrix(0.056172839506172814,0,0,0.056172839506172814,0,0)" xlink:href="#aC"/><use transform="matrix(0.056172839506172814,0,0,0.056172839506172814,14.548765432098758,0)" xlink:href="#aD"/><use transform="matrix(0.056172839506172814,0,0,0.056172839506172814,26.850617283950605,0)" xlink:href="#aE"/><use transform="matrix(0.056172839506172814,0,0,0.056172839506172814,32.46790123456789,0)" xlink:href="#aF"/></g><g id="w"><use transform="matrix(0.056172839506172814,0,0,0.056172839506172814,0,0)" xlink:href="#aB"/><use transform="matrix(0.056172839506172814,0,0,0.056172839506172814,11.234567901234563,0)" xlink:href="#aH"/></g><path fill="#5d646f" d="M101-234c-31-9-42 10-38 44h38v23H63V0H32v-167H5v-23h27c-7-52 17-82 69-68v24" id="aY"/><g id="x"><use transform="matrix(0.056172839506172814,0,0,0.056172839506172814,0,0)" xlink:href="#aA"/><use transform="matrix(0.056172839506172814,0,0,0.056172839506172814,4.437654320987653,0)" xlink:href="#aL"/><use transform="matrix(0.056172839506172814,0,0,0.056172839506172814,8.257407407407404,0)" xlink:href="#aN"/><use transform="matrix(0.056172839506172814,0,0,0.056172839506172814,19.49197530864197,0)" xlink:href="#aY"/><use transform="matrix(0.056172839506172814,0,0,0.056172839506172814,24.71604938271604,0)" xlink:href="#aY"/><use transform="matrix(0.056172839506172814,0,0,0.056172839506172814,30.333333333333318,0)" xlink:href="#aP"/><use transform="matrix(0.056172839506172814,0,0,0.056172839506172814,34.770987654320976,0)" xlink:href="#aM"/><use transform="matrix(0.056172839506172814,0,0,0.056172839506172814,44.88209876543208,0)" xlink:href="#aW"/><use transform="matrix(0.056172839506172814,0,0,0.056172839506172814,56.116666666666646,0)" xlink:href="#aB"/><use transform="matrix(0.056172839506172814,0,0,0.056172839506172814,67.3512345679012,0)" xlink:href="#aJ"/></g><g id="y"><use transform="matrix(0.056172839506172814,0,0,0.056172839506172814,0,0)" xlink:href="#aO"/><use transform="matrix(0.056172839506172814,0,0,0.056172839506172814,10.111111111111107,0)" xlink:href="#az"/><use transform="matrix(0.056172839506172814,0,0,0.056172839506172814,21.34567901234567,0)" xlink:href="#aJ"/></g><g id="z"><use transform="matrix(0.056172839506172814,0,0,0.056172839506172814,0,0)" xlink:href="#aA"/><use transform="matrix(0.056172839506172814,0,0,0.056172839506172814,4.437654320987653,0)" xlink:href="#aL"/><use transform="matrix(0.056172839506172814,0,0,0.056172839506172814,8.257407407407404,0)" xlink:href="#aN"/><use transform="matrix(0.056172839506172814,0,0,0.056172839506172814,19.49197530864197,0)" xlink:href="#aY"/><use transform="matrix(0.056172839506172814,0,0,0.056172839506172814,24.71604938271604,0)" xlink:href="#aY"/><use transform="matrix(0.056172839506172814,0,0,0.056172839506172814,30.333333333333318,0)" xlink:href="#aP"/><use transform="matrix(0.056172839506172814,0,0,0.056172839506172814,34.770987654320976,0)" xlink:href="#aM"/><use transform="matrix(0.056172839506172814,0,0,0.056172839506172814,44.88209876543208,0)" xlink:href="#aW"/><use transform="matrix(0.056172839506172814,0,0,0.056172839506172814,56.116666666666646,0)" xlink:href="#aB"/><use transform="matrix(0.056172839506172814,0,0,0.056172839506172814,67.3512345679012,0)" xlink:href="#az"/><use transform="matrix(0.056172839506172814,0,0,0.056172839506172814,78.58580246913576,0)" xlink:href="#aJ"/></g><path fill="#5d646f" d="M155-56V0h-30v-56H8v-25l114-167h33v167h35v25h-35zm-30-156c-27 46-58 90-88 131h88v-131" id="aZ"/><path fill="#5d646f" d="M141 0L90-78 38 0H4l68-98-65-92h35l48 74 47-74h35l-64 92 68 98h-35" id="ba"/><path fill="#5d646f" d="M64 0c3-98 48-159 88-221H18v-27h164v26C143-157 98-101 97 0H64" id="bb"/><g id="A"><use transform="matrix(0.056172839506172814,0,0,0.056172839506172814,0,0)" xlink:href="#aZ"/><use transform="matrix(0.056172839506172814,0,0,0.056172839506172814,11.234567901234563,0)" xlink:href="#ba"/><use transform="matrix(0.056172839506172814,0,0,0.056172839506172814,21.34567901234567,0)" xlink:href="#bb"/></g><g id="B"><use transform="matrix(0.056172839506172814,0,0,0.056172839506172814,0,0)" xlink:href="#aO"/><use transform="matrix(0.056172839506172814,0,0,0.056172839506172814,10.111111111111107,0)" xlink:href="#aB"/><use transform="matrix(0.056172839506172814,0,0,0.056172839506172814,21.34567901234567,0)" xlink:href="#aX"/><use transform="matrix(0.056172839506172814,0,0,0.056172839506172814,32.58024691358023,0)" xlink:href="#aU"/><use transform="matrix(0.056172839506172814,0,0,0.056172839506172814,49.375925925925905,0)" xlink:href="#aB"/><use transform="matrix(0.056172839506172814,0,0,0.056172839506172814,60.61049382716047,0)" xlink:href="#aI"/><use transform="matrix(0.056172839506172814,0,0,0.056172839506172814,71.84506172839502,0)" xlink:href="#aH"/><use transform="matrix(0.056172839506172814,0,0,0.056172839506172814,77.4623456790123,0)" xlink:href="#aO"/></g><path fill="#5d646f" d="M160-131c35 5 61 23 61 61C221 17 115-2 30 0v-248c76 3 177-17 177 60 0 33-19 50-47 57zm-97-11c50-1 110 9 110-42 0-47-63-36-110-37v79zm0 115c55-2 124 14 124-45 0-56-70-42-124-44v89" id="bc"/><g id="C"><use transform="matrix(0.056172839506172814,0,0,0.056172839506172814,0,0)" xlink:href="#bc"/><use transform="matrix(0.056172839506172814,0,0,0.056172839506172814,13.481481481481476,0)" xlink:href="#ax"/><use transform="matrix(0.056172839506172814,0,0,0.056172839506172814,24.716049382716037,0)" xlink:href="#az"/><use transform="matrix(0.056172839506172814,0,0,0.056172839506172814,35.9506172839506,0)" xlink:href="#aH"/><use transform="matrix(0.056172839506172814,0,0,0.056172839506172814,41.567901234567884,0)" xlink:href="#ax"/><use transform="matrix(0.056172839506172814,0,0,0.056172839506172814,52.80246913580245,0)" xlink:href="#aI"/></g><g id="D"><use transform="matrix(0.056172839506172814,0,0,0.056172839506172814,0,0)" xlink:href="#aJ"/><use transform="matrix(0.056172839506172814,0,0,0.056172839506172814,6.684567901234565,0)" xlink:href="#aB"/><use transform="matrix(0.056172839506172814,0,0,0.056172839506172814,17.91913580246913,0)" xlink:href="#aH"/><use transform="matrix(0.056172839506172814,0,0,0.056172839506172814,23.53641975308641,0)" xlink:href="#ax"/><use transform="matrix(0.056172839506172814,0,0,0.056172839506172814,34.770987654320976,0)" xlink:href="#az"/><use transform="matrix(0.056172839506172814,0,0,0.056172839506172814,46.00555555555554,0)" xlink:href="#aJ"/></g><path fill="#5d646f" d="M108 0H70L1-190h34L89-25l56-165h34" id="bd"/><g id="E"><use transform="matrix(0.056172839506172814,0,0,0.056172839506172814,0,0)" xlink:href="#bd"/><use transform="matrix(0.056172839506172814,0,0,0.056172839506172814,10.111111111111107,0)" xlink:href="#aN"/><use transform="matrix(0.056172839506172814,0,0,0.056172839506172814,21.34567901234567,0)" xlink:href="#aA"/><use transform="matrix(0.056172839506172814,0,0,0.056172839506172814,25.783333333333324,0)" xlink:href="#aP"/><use transform="matrix(0.056172839506172814,0,0,0.056172839506172814,30.22098765432098,0)" xlink:href="#ay"/><use transform="matrix(0.056172839506172814,0,0,0.056172839506172814,41.45555555555554,0)" xlink:href="#aB"/><use transform="matrix(0.056172839506172814,0,0,0.056172839506172814,52.690123456790104,0)" xlink:href="#aJ"/></g><g id="F"><use transform="matrix(0.056172839506172814,0,0,0.056172839506172814,0,0)" xlink:href="#aE"/><use transform="matrix(0.056172839506172814,0,0,0.056172839506172814,5.617283950617281,0)" xlink:href="#aI"/><use transform="matrix(0.056172839506172814,0,0,0.056172839506172814,16.851851851851844,0)" xlink:href="#aM"/><use transform="matrix(0.056172839506172814,0,0,0.056172839506172814,26.96296296296295,0)" xlink:href="#aJ"/><use transform="matrix(0.056172839506172814,0,0,0.056172839506172814,33.64753086419751,0)" xlink:href="#aQ"/><use transform="matrix(0.056172839506172814,0,0,0.056172839506172814,44.882098765432076,0)" xlink:href="#aU"/><use transform="matrix(0.056172839506172814,0,0,0.056172839506172814,61.67777777777775,0)" xlink:href="#aB"/><use transform="matrix(0.056172839506172814,0,0,0.056172839506172814,72.9123456790123,0)" xlink:href="#aI"/><use transform="matrix(0.056172839506172814,0,0,0.056172839506172814,84.14691358024686,0)" xlink:href="#aH"/><use transform="matrix(0.056172839506172814,0,0,0.056172839506172814,89.76419753086414,0)" xlink:href="#aB"/><use transform="matrix(0.056172839506172814,0,0,0.056172839506172814,100.99876543209871,0)" xlink:href="#aJ"/></g><g id="G"><use transform="matrix(0.056172839506172814,0,0,0.056172839506172814,0,0)" xlink:href="#ay"/><use transform="matrix(0.056172839506172814,0,0,0.056172839506172814,11.234567901234563,0)" xlink:href="#aL"/><use transform="matrix(0.056172839506172814,0,0,0.056172839506172814,15.054320987654314,0)" xlink:href="#az"/><use transform="matrix(0.056172839506172814,0,0,0.056172839506172814,26.288888888888877,0)" xlink:href="#aI"/></g><path fill="#5d646f" d="M143 0L79-87 56-68V0H24v-261h32v163l83-92h37l-77 82L181 0h-38" id="be"/><g id="H"><use transform="matrix(0.056172839506172814,0,0,0.056172839506172814,0,0)" xlink:href="#aH"/><use transform="matrix(0.056172839506172814,0,0,0.056172839506172814,5.617283950617281,0)" xlink:href="#aP"/><use transform="matrix(0.056172839506172814,0,0,0.056172839506172814,10.054938271604934,0)" xlink:href="#aM"/><use transform="matrix(0.056172839506172814,0,0,0.056172839506172814,20.16604938271604,0)" xlink:href="#be"/><use transform="matrix(0.056172839506172814,0,0,0.056172839506172814,30.277160493827147,0)" xlink:href="#aB"/><use transform="matrix(0.056172839506172814,0,0,0.056172839506172814,41.51172839506171,0)" xlink:href="#aH"/></g><g id="I"><use transform="matrix(0.056172839506172814,0,0,0.056172839506172814,0,0)" xlink:href="#aF"/><use transform="matrix(0.056172839506172814,0,0,0.056172839506172814,14.548765432098758,0)" xlink:href="#aQ"/><use transform="matrix(0.056172839506172814,0,0,0.056172839506172814,25.78333333333332,0)" xlink:href="#aM"/><use transform="matrix(0.056172839506172814,0,0,0.056172839506172814,35.89444444444443,0)" xlink:href="#aJ"/><use transform="matrix(0.056172839506172814,0,0,0.056172839506172814,42.579012345679,0)" xlink:href="#aB"/><use transform="matrix(0.056172839506172814,0,0,0.056172839506172814,53.81358024691356,0)" xlink:href="#aU"/><use transform="matrix(0.056172839506172814,0,0,0.056172839506172814,70.60925925925923,0)" xlink:href="#aB"/><use transform="matrix(0.056172839506172814,0,0,0.056172839506172814,81.84382716049379,0)" xlink:href="#aI"/><use transform="matrix(0.056172839506172814,0,0,0.056172839506172814,93.07839506172834,0)" xlink:href="#aH"/><use transform="matrix(0.056172839506172814,0,0,0.056172839506172814,98.69567901234562,0)" xlink:href="#aB"/><use transform="matrix(0.056172839506172814,0,0,0.056172839506172814,109.93024691358019,0)" xlink:href="#aJ"/></g><path fill="#5d646f" d="M190 0L58-211 59 0H30v-248h39L202-35l-2-213h31V0h-41" id="bf"/><g id="J"><use transform="matrix(0.056172839506172814,0,0,0.056172839506172814,0,0)" xlink:href="#bf"/><use transform="matrix(0.056172839506172814,0,0,0.056172839506172814,14.548765432098758,0)" xlink:href="#ax"/><use transform="matrix(0.056172839506172814,0,0,0.056172839506172814,25.78333333333332,0)" xlink:href="#aI"/></g><g id="K"><use transform="matrix(0.056172839506172814,0,0,0.056172839506172814,0,0)" xlink:href="#aM"/><use transform="matrix(0.056172839506172814,0,0,0.056172839506172814,10.111111111111107,0)" xlink:href="#aN"/><use transform="matrix(0.056172839506172814,0,0,0.056172839506172814,21.34567901234567,0)" xlink:href="#aJ"/><use transform="matrix(0.056172839506172814,0,0,0.056172839506172814,28.030246913580235,0)" xlink:href="#aH"/><use transform="matrix(0.056172839506172814,0,0,0.056172839506172814,33.64753086419752,0)" xlink:href="#aB"/></g><g id="L"><use transform="matrix(0.056172839506172814,0,0,0.056172839506172814,0,0)" xlink:href="#aA"/><use transform="matrix(0.056172839506172814,0,0,0.056172839506172814,4.437654320987653,0)" xlink:href="#aL"/><use transform="matrix(0.056172839506172814,0,0,0.056172839506172814,8.257407407407404,0)" xlink:href="#aN"/><use transform="matrix(0.056172839506172814,0,0,0.056172839506172814,19.49197530864197,0)" xlink:href="#aY"/><use transform="matrix(0.056172839506172814,0,0,0.056172839506172814,24.71604938271604,0)" xlink:href="#aY"/><use transform="matrix(0.056172839506172814,0,0,0.056172839506172814,30.333333333333318,0)" xlink:href="#aP"/><use transform="matrix(0.056172839506172814,0,0,0.056172839506172814,34.770987654320976,0)" xlink:href="#aM"/><use transform="matrix(0.056172839506172814,0,0,0.056172839506172814,44.88209876543208,0)" xlink:href="#aW"/><use transform="matrix(0.056172839506172814,0,0,0.056172839506172814,56.116666666666646,0)" xlink:href="#aB"/><use transform="matrix(0.056172839506172814,0,0,0.056172839506172814,67.3512345679012,0)" xlink:href="#aJ"/></g><g id="M"><use transform="matrix(0.056172839506172814,0,0,0.056172839506172814,0,0)" xlink:href="#aA"/><use transform="matrix(0.056172839506172814,0,0,0.056172839506172814,4.437654320987653,0)" xlink:href="#aL"/><use transform="matrix(0.056172839506172814,0,0,0.056172839506172814,8.257407407407404,0)" xlink:href="#aN"/><use transform="matrix(0.056172839506172814,0,0,0.056172839506172814,19.49197530864197,0)" xlink:href="#aY"/><use transform="matrix(0.056172839506172814,0,0,0.056172839506172814,24.71604938271604,0)" xlink:href="#aY"/><use transform="matrix(0.056172839506172814,0,0,0.056172839506172814,30.333333333333318,0)" xlink:href="#aP"/><use transform="matrix(0.056172839506172814,0,0,0.056172839506172814,34.770987654320976,0)" xlink:href="#aM"/><use transform="matrix(0.056172839506172814,0,0,0.056172839506172814,44.88209876543208,0)" xlink:href="#aW"/><use transform="matrix(0.056172839506172814,0,0,0.056172839506172814,56.116666666666646,0)" xlink:href="#aB"/><use transform="matrix(0.056172839506172814,0,0,0.056172839506172814,67.3512345679012,0)" xlink:href="#az"/><use transform="matrix(0.056172839506172814,0,0,0.056172839506172814,78.58580246913576,0)" xlink:href="#aJ"/></g><g id="N"><use transform="matrix(0.056172839506172814,0,0,0.056172839506172814,0,0)" xlink:href="#aZ"/><use transform="matrix(0.056172839506172814,0,0,0.056172839506172814,11.234567901234563,0)" xlink:href="#ba"/><use transform="matrix(0.056172839506172814,0,0,0.056172839506172814,21.34567901234567,0)" xlink:href="#bb"/></g><g id="O"><use transform="matrix(0.056172839506172814,0,0,0.056172839506172814,0,0)" xlink:href="#aS"/><use transform="matrix(0.056172839506172814,0,0,0.056172839506172814,13.481481481481476,0)" xlink:href="#aP"/></g><g id="P"><use transform="matrix(0.056172839506172814,0,0,0.056172839506172814,0,0)" xlink:href="#aA"/><use transform="matrix(0.056172839506172814,0,0,0.056172839506172814,4.437654320987653,0)" xlink:href="#aL"/><use transform="matrix(0.056172839506172814,0,0,0.056172839506172814,8.257407407407404,0)" xlink:href="#az"/><use transform="matrix(0.056172839506172814,0,0,0.056172839506172814,19.49197530864197,0)" xlink:href="#aH"/><use transform="matrix(0.056172839506172814,0,0,0.056172839506172814,25.10925925925925,0)" xlink:href="#aP"/><use transform="matrix(0.056172839506172814,0,0,0.056172839506172814,29.5469135802469,0)" xlink:href="#aA"/><use transform="matrix(0.056172839506172814,0,0,0.056172839506172814,33.984567901234556,0)" xlink:href="#aP"/><use transform="matrix(0.056172839506172814,0,0,0.056172839506172814,38.42222222222221,0)" xlink:href="#aO"/><use transform="matrix(0.056172839506172814,0,0,0.056172839506172814,48.53333333333332,0)" xlink:href="#aN"/><use transform="matrix(0.056172839506172814,0,0,0.056172839506172814,59.76790123456787,0)" xlink:href="#aH"/><use transform="matrix(0.056172839506172814,0,0,0.056172839506172814,65.38518518518516,0)" xlink:href="#aB"/><use transform="matrix(0.056172839506172814,0,0,0.056172839506172814,76.61975308641973,0)" xlink:href="#az"/><use transform="matrix(0.056172839506172814,0,0,0.056172839506172814,87.85432098765429,0)" xlink:href="#aJ"/></g><use transform="matrix(0.056172839506172814,0,0,0.056172839506172814,0,0)" xlink:href="#aN" id="Q"/><g id="R"><use transform="matrix(0.056172839506172814,0,0,0.056172839506172814,0,0)" xlink:href="#aN"/><use transform="matrix(0.056172839506172814,0,0,0.056172839506172814,11.234567901234563,0)" xlink:href="#az"/></g><g id="S"><use transform="matrix(0.056172839506172814,0,0,0.056172839506172814,0,0)" xlink:href="#aU"/><use transform="matrix(0.056172839506172814,0,0,0.056172839506172814,16.795679012345673,0)" xlink:href="#ax"/><use transform="matrix(0.056172839506172814,0,0,0.056172839506172814,28.030246913580235,0)" xlink:href="#aP"/><use transform="matrix(0.056172839506172814,0,0,0.056172839506172814,32.46790123456789,0)" xlink:href="#aI"/><use transform="matrix(0.056172839506172814,0,0,0.056172839506172814,43.70246913580245,0)" xlink:href="#aO"/></g><g id="T"><use transform="matrix(0.056172839506172814,0,0,0.056172839506172814,0,0)" xlink:href="#az"/><use transform="matrix(0.056172839506172814,0,0,0.056172839506172814,11.234567901234563,0)" xlink:href="#aI"/></g><g id="U"><use transform="matrix(0.056172839506172814,0,0,0.056172839506172814,0,0)" xlink:href="#aW"/><use transform="matrix(0.056172839506172814,0,0,0.056172839506172814,11.234567901234563,0)" xlink:href="#aN"/><use transform="matrix(0.056172839506172814,0,0,0.056172839506172814,22.469135802469125,0)" xlink:href="#az"/><use transform="matrix(0.056172839506172814,0,0,0.056172839506172814,33.70370370370369,0)" xlink:href="#aH"/></g><g id="V"><use transform="matrix(0.056172839506172814,0,0,0.056172839506172814,0,0)" xlink:href="#aG"/><use transform="matrix(0.056172839506172814,0,0,0.056172839506172814,13.481481481481476,0)" xlink:href="#aY"/><use transform="matrix(0.056172839506172814,0,0,0.056172839506172814,18.70555555555555,0)" xlink:href="#aY"/><use transform="matrix(0.056172839506172814,0,0,0.056172839506172814,24.32283950617283,0)" xlink:href="#aP"/><use transform="matrix(0.056172839506172814,0,0,0.056172839506172814,28.76049382716048,0)" xlink:href="#aM"/><use transform="matrix(0.056172839506172814,0,0,0.056172839506172814,38.87160493827159,0)" xlink:href="#aW"/><use transform="matrix(0.056172839506172814,0,0,0.056172839506172814,50.10617283950615,0)" xlink:href="#aB"/><use transform="matrix(0.056172839506172814,0,0,0.056172839506172814,61.34074074074071,0)" xlink:href="#aJ"/></g><path fill="#5d646f" d="M27 0v-27h64v-190l-56 39v-29l58-41h29v221h61V0H27" id="bg"/><use transform="matrix(0.056172839506172814,0,0,0.056172839506172814,0,0)" xlink:href="#bg" id="W"/><g id="X"><use transform="matrix(0.056172839506172814,0,0,0.056172839506172814,0,0)" xlink:href="#aO"/><use transform="matrix(0.056172839506172814,0,0,0.056172839506172814,10.111111111111107,0)" xlink:href="#aB"/><use transform="matrix(0.056172839506172814,0,0,0.056172839506172814,21.34567901234567,0)" xlink:href="#aX"/><use transform="matrix(0.056172839506172814,0,0,0.056172839506172814,32.58024691358023,0)" xlink:href="#aU"/><use transform="matrix(0.056172839506172814,0,0,0.056172839506172814,49.375925925925905,0)" xlink:href="#aB"/><use transform="matrix(0.056172839506172814,0,0,0.056172839506172814,60.61049382716047,0)" xlink:href="#aI"/><use transform="matrix(0.056172839506172814,0,0,0.056172839506172814,71.84506172839502,0)" xlink:href="#aH"/><use transform="matrix(0.056172839506172814,0,0,0.056172839506172814,77.4623456790123,0)" xlink:href="#aO"/></g><g id="Y"><use transform="matrix(0.056172839506172814,0,0,0.056172839506172814,0,0)" xlink:href="#aJ"/><use transform="matrix(0.056172839506172814,0,0,0.056172839506172814,6.684567901234565,0)" xlink:href="#aB"/><use transform="matrix(0.056172839506172814,0,0,0.056172839506172814,17.91913580246913,0)" xlink:href="#aT"/><use transform="matrix(0.056172839506172814,0,0,0.056172839506172814,29.15370370370369,0)" xlink:href="#aJ"/><use transform="matrix(0.056172839506172814,0,0,0.056172839506172814,35.83827160493826,0)" xlink:href="#aQ"/><use transform="matrix(0.056172839506172814,0,0,0.056172839506172814,47.07283950617282,0)" xlink:href="#aO"/><use transform="matrix(0.056172839506172814,0,0,0.056172839506172814,57.18395061728393,0)" xlink:href="#aB"/><use transform="matrix(0.056172839506172814,0,0,0.056172839506172814,68.41851851851848,0)" xlink:href="#aI"/><use transform="matrix(0.056172839506172814,0,0,0.056172839506172814,79.65308641975304,0)" xlink:href="#aH"/><use transform="matrix(0.056172839506172814,0,0,0.056172839506172814,85.27037037037032,0)" xlink:href="#aN"/><use transform="matrix(0.056172839506172814,0,0,0.056172839506172814,96.50493827160489,0)" xlink:href="#aI"/><use transform="matrix(0.056172839506172814,0,0,0.056172839506172814,107.73950617283944,0)" xlink:href="#aH"/></g><g id="Z"><use transform="matrix(0.056172839506172814,0,0,0.056172839506172814,0,0)" xlink:href="#aI"/><use transform="matrix(0.056172839506172814,0,0,0.056172839506172814,11.234567901234563,0)" xlink:href="#az"/><use transform="matrix(0.056172839506172814,0,0,0.056172839506172814,22.469135802469125,0)" xlink:href="#aU"/><use transform="matrix(0.056172839506172814,0,0,0.056172839506172814,39.2648148148148,0)" xlink:href="#aQ"/><use transform="matrix(0.056172839506172814,0,0,0.056172839506172814,50.49938271604936,0)" xlink:href="#aJ"/><use transform="matrix(0.056172839506172814,0,0,0.056172839506172814,57.18395061728393,0)" xlink:href="#ax"/></g><g id="aa"><use transform="matrix(0.056172839506172814,0,0,0.056172839506172814,0,0)" xlink:href="#aM"/><use transform="matrix(0.056172839506172814,0,0,0.056172839506172814,10.111111111111107,0)" xlink:href="#aP"/><use transform="matrix(0.056172839506172814,0,0,0.056172839506172814,14.548765432098758,0)" xlink:href="#aJ"/><use transform="matrix(0.056172839506172814,0,0,0.056172839506172814,21.233333333333324,0)" xlink:href="#aM"/><use transform="matrix(0.056172839506172814,0,0,0.056172839506172814,31.34444444444443,0)" xlink:href="#az"/><use transform="matrix(0.056172839506172814,0,0,0.056172839506172814,42.57901234567899,0)" xlink:href="#aP"/><use transform="matrix(0.056172839506172814,0,0,0.056172839506172814,47.016666666666644,0)" xlink:href="#aH"/></g><g id="ab"><use transform="matrix(0.056172839506172814,0,0,0.056172839506172814,0,0)" xlink:href="#aE"/><use transform="matrix(0.056172839506172814,0,0,0.056172839506172814,5.617283950617281,0)" xlink:href="#aI"/><use transform="matrix(0.056172839506172814,0,0,0.056172839506172814,16.851851851851844,0)" xlink:href="#aM"/><use transform="matrix(0.056172839506172814,0,0,0.056172839506172814,26.96296296296295,0)" xlink:href="#aJ"/><use transform="matrix(0.056172839506172814,0,0,0.056172839506172814,33.64753086419751,0)" xlink:href="#aQ"/><use transform="matrix(0.056172839506172814,0,0,0.056172839506172814,44.882098765432076,0)" xlink:href="#aU"/><use transform="matrix(0.056172839506172814,0,0,0.056172839506172814,61.67777777777775,0)" xlink:href="#aB"/><use transform="matrix(0.056172839506172814,0,0,0.056172839506172814,72.9123456790123,0)" xlink:href="#aI"/><use transform="matrix(0.056172839506172814,0,0,0.056172839506172814,84.14691358024686,0)" xlink:href="#aH"/><use transform="matrix(0.056172839506172814,0,0,0.056172839506172814,89.76419753086414,0)" xlink:href="#aB"/><use transform="matrix(0.056172839506172814,0,0,0.056172839506172814,100.99876543209871,0)" xlink:href="#aJ"/></g><g id="ac"><use transform="matrix(0.056172839506172814,0,0,0.056172839506172814,0,0)" xlink:href="#bc"/><use transform="matrix(0.056172839506172814,0,0,0.056172839506172814,13.481481481481476,0)" xlink:href="#ax"/><use transform="matrix(0.056172839506172814,0,0,0.056172839506172814,24.716049382716037,0)" xlink:href="#az"/><use transform="matrix(0.056172839506172814,0,0,0.056172839506172814,35.9506172839506,0)" xlink:href="#aH"/><use transform="matrix(0.056172839506172814,0,0,0.056172839506172814,41.567901234567884,0)" xlink:href="#ax"/><use transform="matrix(0.056172839506172814,0,0,0.056172839506172814,52.80246913580245,0)" xlink:href="#aI"/></g><path fill="#5d646f" d="M115-194c53 0 69 39 70 98 0 66-23 100-70 100C84 3 66-7 56-30L54 0H23l1-261h32v101c10-23 28-34 59-34zm-8 174c40 0 45-34 45-75 0-40-5-75-45-74-42 0-51 32-51 76 0 43 10 73 51 73" id="bh"/><g id="ad"><use transform="matrix(0.056172839506172814,0,0,0.056172839506172814,0,0)" xlink:href="#bh"/><use transform="matrix(0.056172839506172814,0,0,0.056172839506172814,11.234567901234563,0)" xlink:href="#aN"/><use transform="matrix(0.056172839506172814,0,0,0.056172839506172814,22.469135802469125,0)" xlink:href="#aO"/></g><g id="ae"><use transform="matrix(0.056172839506172814,0,0,0.056172839506172814,0,0)" xlink:href="#ay"/><use transform="matrix(0.056172839506172814,0,0,0.056172839506172814,11.234567901234563,0)" xlink:href="#aQ"/><use transform="matrix(0.056172839506172814,0,0,0.056172839506172814,22.469135802469125,0)" xlink:href="#aM"/><use transform="matrix(0.056172839506172814,0,0,0.056172839506172814,32.58024691358023,0)" xlink:href="#aJ"/><use transform="matrix(0.056172839506172814,0,0,0.056172839506172814,39.2648148148148,0)" xlink:href="#aB"/><use transform="matrix(0.056172839506172814,0,0,0.056172839506172814,50.49938271604936,0)" xlink:href="#aU"/><use transform="matrix(0.056172839506172814,0,0,0.056172839506172814,67.29506172839504,0)" xlink:href="#aB"/><use transform="matrix(0.056172839506172814,0,0,0.056172839506172814,78.5296296296296,0)" xlink:href="#aI"/><use transform="matrix(0.056172839506172814,0,0,0.056172839506172814,89.76419753086415,0)" xlink:href="#aH"/><use transform="matrix(0.056172839506172814,0,0,0.056172839506172814,95.38148148148143,0)" xlink:href="#aB"/><use transform="matrix(0.056172839506172814,0,0,0.056172839506172814,106.616049382716,0)" xlink:href="#aJ"/></g><g id="af"><use transform="matrix(0.056172839506172814,0,0,0.056172839506172814,0,0)" xlink:href="#aG"/><use transform="matrix(0.056172839506172814,0,0,0.056172839506172814,13.481481481481476,0)" xlink:href="#aM"/><use transform="matrix(0.056172839506172814,0,0,0.056172839506172814,23.59259259259258,0)" xlink:href="#aH"/><use transform="matrix(0.056172839506172814,0,0,0.056172839506172814,29.209876543209862,0)" xlink:href="#az"/><use transform="matrix(0.056172839506172814,0,0,0.056172839506172814,40.44444444444443,0)" xlink:href="#aN"/><use transform="matrix(0.056172839506172814,0,0,0.056172839506172814,51.67901234567899,0)" xlink:href="#aA"/><use transform="matrix(0.056172839506172814,0,0,0.056172839506172814,56.116666666666646,0)" xlink:href="#aP"/><use transform="matrix(0.056172839506172814,0,0,0.056172839506172814,60.55432098765431,0)" xlink:href="#aO"/><use transform="matrix(0.056172839506172814,0,0,0.056172839506172814,70.66543209876541,0)" xlink:href="#aB"/><use transform="matrix(0.056172839506172814,0,0,0.056172839506172814,81.89999999999998,0)" xlink:href="#aJ"/></g><g id="ag"><use transform="matrix(0.056172839506172814,0,0,0.056172839506172814,0,0)" xlink:href="#bf"/><use transform="matrix(0.056172839506172814,0,0,0.056172839506172814,14.548765432098758,0)" xlink:href="#ax"/><use transform="matrix(0.056172839506172814,0,0,0.056172839506172814,25.78333333333332,0)" xlink:href="#aI"/></g><g id="ah"><use transform="matrix(0.056172839506172814,0,0,0.056172839506172814,0,0)" xlink:href="#aF"/><use transform="matrix(0.056172839506172814,0,0,0.056172839506172814,14.548765432098758,0)" xlink:href="#aQ"/><use transform="matrix(0.056172839506172814,0,0,0.056172839506172814,25.78333333333332,0)" xlink:href="#aM"/><use transform="matrix(0.056172839506172814,0,0,0.056172839506172814,35.89444444444443,0)" xlink:href="#aJ"/><use transform="matrix(0.056172839506172814,0,0,0.056172839506172814,42.579012345679,0)" xlink:href="#aB"/><use transform="matrix(0.056172839506172814,0,0,0.056172839506172814,53.81358024691356,0)" xlink:href="#aU"/><use transform="matrix(0.056172839506172814,0,0,0.056172839506172814,70.60925925925923,0)" xlink:href="#aB"/><use transform="matrix(0.056172839506172814,0,0,0.056172839506172814,81.84382716049379,0)" xlink:href="#aI"/><use transform="matrix(0.056172839506172814,0,0,0.056172839506172814,93.07839506172834,0)" xlink:href="#aH"/><use transform="matrix(0.056172839506172814,0,0,0.056172839506172814,98.69567901234562,0)" xlink:href="#aB"/><use transform="matrix(0.056172839506172814,0,0,0.056172839506172814,109.93024691358019,0)" xlink:href="#aJ"/></g><g id="ai"><use transform="matrix(0.056172839506172814,0,0,0.056172839506172814,0,0)" xlink:href="#aH"/><use transform="matrix(0.056172839506172814,0,0,0.056172839506172814,5.617283950617281,0)" xlink:href="#aP"/><use transform="matrix(0.056172839506172814,0,0,0.056172839506172814,10.054938271604934,0)" xlink:href="#aM"/><use transform="matrix(0.056172839506172814,0,0,0.056172839506172814,20.16604938271604,0)" xlink:href="#be"/><use transform="matrix(0.056172839506172814,0,0,0.056172839506172814,30.277160493827147,0)" xlink:href="#aB"/><use transform="matrix(0.056172839506172814,0,0,0.056172839506172814,41.51172839506171,0)" xlink:href="#aH"/></g><g id="aj"><use transform="matrix(0.056172839506172814,0,0,0.056172839506172814,0,0)" xlink:href="#aA"/><use transform="matrix(0.056172839506172814,0,0,0.056172839506172814,4.437654320987653,0)" xlink:href="#aL"/><use transform="matrix(0.056172839506172814,0,0,0.056172839506172814,8.257407407407404,0)" xlink:href="#az"/><use transform="matrix(0.056172839506172814,0,0,0.056172839506172814,19.49197530864197,0)" xlink:href="#aH"/><use transform="matrix(0.056172839506172814,0,0,0.056172839506172814,25.10925925925925,0)" xlink:href="#aP"/><use transform="matrix(0.056172839506172814,0,0,0.056172839506172814,29.5469135802469,0)" xlink:href="#aA"/><use transform="matrix(0.056172839506172814,0,0,0.056172839506172814,33.984567901234556,0)" xlink:href="#aP"/><use transform="matrix(0.056172839506172814,0,0,0.056172839506172814,38.42222222222221,0)" xlink:href="#aO"/><use transform="matrix(0.056172839506172814,0,0,0.056172839506172814,48.53333333333332,0)" xlink:href="#aN"/><use transform="matrix(0.056172839506172814,0,0,0.056172839506172814,59.76790123456787,0)" xlink:href="#aH"/><use transform="matrix(0.056172839506172814,0,0,0.056172839506172814,65.38518518518516,0)" xlink:href="#aB"/><use transform="matrix(0.056172839506172814,0,0,0.056172839506172814,76.61975308641973,0)" xlink:href="#az"/><use transform="matrix(0.056172839506172814,0,0,0.056172839506172814,87.85432098765429,0)" xlink:href="#aJ"/></g><path fill="#5d646f" d="M30 0v-248h187v28H63v79h144v27H63v87h162V0H30" id="bi"/><path fill="#5d646f" d="M179-190L93 31C79 59 56 82 12 73V49c39 6 53-20 64-50L1-190h34L92-34l54-156h33" id="bj"/><g id="ak"><use transform="matrix(0.056172839506172814,0,0,0.056172839506172814,0,0)" xlink:href="#bi"/><use transform="matrix(0.056172839506172814,0,0,0.056172839506172814,13.481481481481476,0)" xlink:href="#aI"/><use transform="matrix(0.056172839506172814,0,0,0.056172839506172814,24.716049382716037,0)" xlink:href="#bd"/><use transform="matrix(0.056172839506172814,0,0,0.056172839506172814,34.827160493827144,0)" xlink:href="#ax"/><use transform="matrix(0.056172839506172814,0,0,0.056172839506172814,46.06172839506171,0)" xlink:href="#bj"/><use transform="matrix(0.056172839506172814,0,0,0.056172839506172814,56.172839506172814,0)" xlink:href="#aB"/><use transform="matrix(0.056172839506172814,0,0,0.056172839506172814,67.40740740740738,0)" xlink:href="#aJ"/></g><g id="al"><use transform="matrix(0.056172839506172814,0,0,0.056172839506172814,0,0)" xlink:href="#aT"/><use transform="matrix(0.056172839506172814,0,0,0.056172839506172814,11.234567901234563,0)" xlink:href="#aN"/><use transform="matrix(0.056172839506172814,0,0,0.056172839506172814,22.469135802469125,0)" xlink:href="#aJ"/></g><g id="am"><use transform="matrix(0.056172839506172814,0,0,0.056172839506172814,0,0)" xlink:href="#bh"/><use transform="matrix(0.056172839506172814,0,0,0.056172839506172814,11.234567901234563,0)" xlink:href="#aA"/><use transform="matrix(0.056172839506172814,0,0,0.056172839506172814,15.672222222222215,0)" xlink:href="#az"/><use transform="matrix(0.056172839506172814,0,0,0.056172839506172814,26.90679012345678,0)" xlink:href="#aB"/><use transform="matrix(0.056172839506172814,0,0,0.056172839506172814,38.14135802469134,0)" xlink:href="#aH"/><use transform="matrix(0.056172839506172814,0,0,0.056172839506172814,43.75864197530862,0)" xlink:href="#ax"/><use transform="matrix(0.056172839506172814,0,0,0.056172839506172814,54.99320987654318,0)" xlink:href="#ax"/><use transform="matrix(0.056172839506172814,0,0,0.056172839506172814,66.22777777777775,0)" xlink:href="#aH"/><use transform="matrix(0.056172839506172814,0,0,0.056172839506172814,71.84506172839502,0)" xlink:href="#aW"/></g><g id="an"><use transform="matrix(0.05,0,0,0.05,0,0)" xlink:href="#bc"/><use transform="matrix(0.05,0,0,0.05,12,0)" xlink:href="#ax"/><use transform="matrix(0.05,0,0,0.05,22,0)" xlink:href="#az"/><use transform="matrix(0.05,0,0,0.05,32,0)" xlink:href="#aH"/><use transform="matrix(0.05,0,0,0.05,37,0)" xlink:href="#ax"/><use transform="matrix(0.05,0,0,0.05,47,0)" xlink:href="#aI"/></g><g id="ao"><use transform="matrix(0.05,0,0,0.05,0,0)" xlink:href="#aJ"/><use transform="matrix(0.05,0,0,0.05,5.95,0)" xlink:href="#aB"/><use transform="matrix(0.05,0,0,0.05,15.949999999999998,0)" xlink:href="#aH"/><use transform="matrix(0.05,0,0,0.05,20.95,0)" xlink:href="#ax"/><use transform="matrix(0.05,0,0,0.05,30.950000000000003,0)" xlink:href="#az"/><use transform="matrix(0.05,0,0,0.05,40.95,0)" xlink:href="#aJ"/></g><path fill="#5d646f" d="M232-93c-1 65-40 97-104 97C67 4 28-28 28-90v-158h33c8 89-33 224 67 224 102 0 64-133 71-224h33v155" id="bk"/><g id="ap"><use transform="matrix(0.05,0,0,0.05,0,0)" xlink:href="#aR"/><use transform="matrix(0.05,0,0,0.05,14,0)" xlink:href="#bk"/><use transform="matrix(0.05,0,0,0.05,26.950000000000003,0)" xlink:href="#aE"/></g><g id="aq"><use transform="matrix(0.05,0,0,0.05,0,0)" xlink:href="#aG"/><use transform="matrix(0.05,0,0,0.05,12,0)" xlink:href="#az"/><use transform="matrix(0.05,0,0,0.05,22,0)" xlink:href="#aH"/><use transform="matrix(0.05,0,0,0.05,27,0)" xlink:href="#aJ"/><use transform="matrix(0.05,0,0,0.05,32.95,0)" xlink:href="#aB"/></g><g id="ar"><use transform="matrix(0.05,0,0,0.05,0,0)" xlink:href="#aM"/><use transform="matrix(0.05,0,0,0.05,9,0)" xlink:href="#aN"/><use transform="matrix(0.05,0,0,0.05,19,0)" xlink:href="#aJ"/><use transform="matrix(0.05,0,0,0.05,24.95,0)" xlink:href="#aH"/><use transform="matrix(0.05,0,0,0.05,29.950000000000003,0)" xlink:href="#aB"/></g><g id="as"><use transform="matrix(0.05,0,0,0.05,0,0)" xlink:href="#aC"/><use transform="matrix(0.05,0,0,0.05,12.950000000000001,0)" xlink:href="#aD"/><use transform="matrix(0.05,0,0,0.05,23.900000000000002,0)" xlink:href="#aE"/><use transform="matrix(0.05,0,0,0.05,28.900000000000002,0)" xlink:href="#aF"/></g><g id="at"><use transform="matrix(0.05,0,0,0.05,0,0)" xlink:href="#ay"/><use transform="matrix(0.05,0,0,0.05,10,0)" xlink:href="#aQ"/><use transform="matrix(0.05,0,0,0.05,20,0)" xlink:href="#aH"/><use transform="matrix(0.05,0,0,0.05,25,0)" xlink:href="#aB"/><use transform="matrix(0.05,0,0,0.05,35,0)" xlink:href="#aM"/><use transform="matrix(0.05,0,0,0.05,44,0)" xlink:href="#aH"/><use transform="matrix(0.05,0,0,0.05,49,0)" xlink:href="#aQ"/><use transform="matrix(0.05,0,0,0.05,59,0)" xlink:href="#aB"/></g><g id="au"><use transform="matrix(0.05,0,0,0.05,0,0)" xlink:href="#aU"/><use transform="matrix(0.05,0,0,0.05,14.950000000000001,0)" xlink:href="#ax"/><use transform="matrix(0.05,0,0,0.05,24.950000000000003,0)" xlink:href="#aP"/><use transform="matrix(0.05,0,0,0.05,28.900000000000002,0)" xlink:href="#aI"/><use transform="matrix(0.05,0,0,0.05,38.900000000000006,0)" xlink:href="#aO"/></g><g id="av"><use transform="matrix(0.05,0,0,0.05,0,0)" xlink:href="#aT"/><use transform="matrix(0.05,0,0,0.05,10,0)" xlink:href="#aA"/><use transform="matrix(0.05,0,0,0.05,13.949999999999998,0)" xlink:href="#az"/><use transform="matrix(0.05,0,0,0.05,23.95,0)" xlink:href="#aO"/></g></defs></g></svg>